<?xml version="1.0" encoding="utf-8"?>
<!-- Svg Vector Icons : http://www.onlinewebfonts.com/icon -->
<!DOCTYPE svg PUBLIC "-//W3C//DTD SVG 1.1//EN" "http://www.w3.org/Graphics/SVG/1.1/DTD/svg11.dtd">
<svg version="1.1" xmlns="http://www.w3.org/2000/svg" xmlns:xlink="http://www.w3.org/1999/xlink" x="0px" y="0px" viewBox="0 0 1000 1000" enable-background="new 0 0 1000 1000" xml:space="preserve">
<metadata> Svg Vector Icons : http://www.onlinewebfonts.com/icon </metadata>
<g><path d="M898.4,96.9c21.9,0,39.7,17.8,39.7,39.7V616c0,21.9-17.8,39.7-39.7,39.7H460.3L182.5,854.1V655.7h-80.9c-21.9,0-39.7-17.8-39.7-39.7V136.6c0-21.9,17.8-39.7,39.7-39.7L898.4,96.9 M743.3,450.5c43.8,0,79.4-35.5,79.4-79.4c0-43.8-35.5-79.4-79.4-79.4c-43.8,0-79.4,35.5-79.4,79.4C663.9,415,699.5,450.5,743.3,450.5 M498.7,450.5c43.8,0,79.4-35.5,79.4-79.4c0-43.8-35.5-79.4-79.4-79.4c-43.8,0-79.4,35.5-79.4,79.4C419.3,415,454.9,450.5,498.7,450.5 M256.7,450.5c43.8,0,79.4-35.5,79.4-79.4c0-43.8-35.5-79.4-79.4-79.4c-43.8,0-79.4,35.5-79.4,79.4C177.3,415,212.9,450.5,256.7,450.5 M898.4,45.1H101.6C51.1,45.1,10,86.1,10,136.6V616c0,50.5,41.1,91.6,91.6,91.6h29.1v146.6v100.8l82-58.6l264.3-188.8h421.5c50.5,0,91.6-41.1,91.6-91.6V136.6C990,86.1,948.9,45.1,898.4,45.1L898.4,45.1z M743.3,398.6c-15.2,0-27.5-12.3-27.5-27.5c0-15.2,12.3-27.5,27.5-27.5c15.2,0,27.5,12.3,27.5,27.5C770.8,386.3,758.5,398.6,743.3,398.6L743.3,398.6z M498.7,398.6c-15.2,0-27.5-12.3-27.5-27.5c0-15.2,12.3-27.5,27.5-27.5c15.2,0,27.5,12.3,27.5,27.5C526.2,386.3,513.9,398.6,498.7,398.6L498.7,398.6z M256.7,398.6c-15.2,0-27.5-12.3-27.5-27.5c0-15.2,12.3-27.5,27.5-27.5c15.2,0,27.5,12.3,27.5,27.5C284.2,386.3,271.9,398.6,256.7,398.6L256.7,398.6z"/></g>
</svg>