<svg id="Layer_1" data-name="Layer 1" xmlns="http://www.w3.org/2000/svg" viewBox="0 0 122.88 121.84"><defs><style>.cls-1{fill-rule:evenodd;}</style></defs><title>increasing-users</title><path class="cls-1" d="M58.75,51.2c4.35,9.07,17.55,9.4,21.71,0a24.53,24.53,0,0,1-2.82-3.61l-.41-.6a11.77,11.77,0,0,1-7.63,2.6,11.56,11.56,0,0,1-8.13-3.25L61.09,46c-.3.85-.68,1.86-1.1,2.8a16.59,16.59,0,0,1-1.24,2.37ZM15.22,110.33,51.83,76.14c9,9,17.83,17.83,26.89,26.78l24-24.28L91.57,67.52l31.31-.29V98.81L112.19,88.12Q95.48,105,78.78,121.84L51.64,95l-15.4,15.29Zm-.13-62.14,2.8-.07,1.33,0,2,2.34c.48.55,1,1.1,1.49,1.63a30.74,30.74,0,0,1-3.54,3.24c-.66.56-1.29,1.09-1.77,1.53A62.65,62.65,0,0,0,7.07,61.59a10.29,10.29,0,0,0-4.21,4.08C.51,70.07,1.05,75.4.09,79.91c-.29,4,0,3.77,2.79,3.72,7.84-.13,16.64-.14,24.82-.11L44.28,68l.18-.17.07-.06.36-.3,0,0,0,0,.15-.12.05,0,.2-.15h0l.22-.15,0,0,.19-.12,0,0,0,0,.17-.1h0l.08,0,.12-.07.09-.06.2-.11h0l.19-.11.06,0,.15-.07.09-.05.21-.09,0,0,.18-.07.08,0h0l.17-.07h0l.16-.06h0l.13,0h0l.16-.06h0l.19-.06h0l.13,0,.11,0,.1,0h0l.19,0,.12,0,.09,0,.15,0h0l.15,0,.19,0,.17,0h0l.14,0h0l.18,0c.31,0,.62-.07.94-.08h.57c.32,0,.63,0,.95,0l.19,0,.17,0h0a10.39,10.39,0,0,1,2.57.63,11,11,0,0,1,4.18,2.81l.59.58,7.63,7.63h17l-1.44-1.44a11.1,11.1,0,0,1,8.71-18.91l8.81-.08c-4.77-2.14-15.15-3-19.55-6.13h0l-.09-.09A23.44,23.44,0,0,1,79,46.76c-.17-.26-.35-.53-.53-.78a34.13,34.13,0,0,0,4.95-6.82l4-6.64a.54.54,0,0,0,0-.11h0c1-2.15,1.26-3.72,1-4.84a2.55,2.55,0,0,0-1.87-1.93h0l.22-9.18a13.7,13.7,0,0,0-3.46-8.67C79.41,3.55,71.12-.52,65.51.05c-1.16.12.12,2.65-1,3a18.94,18.94,0,0,0-5,2.23,13.57,13.57,0,0,0-6,7.62,14.43,14.43,0,0,0-.44,2.29,91.65,91.65,0,0,0,.17,10.12,4.61,4.61,0,0,0-.86.43,3.51,3.51,0,0,0-1.21,1.42A4.06,4.06,0,0,0,50.83,29a10.3,10.3,0,0,0,2,5.14l3.54,5.63a42.88,42.88,0,0,0,3.5,5c-.32.91-.81,2.25-1.34,3.47a14.65,14.65,0,0,1-1.07,2.08C53.55,53,45,54,39.79,55.68a33.49,33.49,0,0,1-3.14-3,22.52,22.52,0,0,0,2.4-2.59l1.27-1.52.26-.3.22-.27h2.77c4.07-8.72,1.49-21.67-6.85-27.16-2.56-1.69-4.4-1.62-7.39-1.62-3.44,0-5.19.11-8.14,2.06-4.33,2.87-7,7.83-8.12,14.72-.23,3.43-.38,9.37,2,12.14ZM31.87,63a14.64,14.64,0,0,1,1.57-3,11.84,11.84,0,0,1,3.79-3.21,10.37,10.37,0,0,1,1.2-.57,27.13,27.13,0,0,1-2.77-2.66l0,0A9.55,9.55,0,0,1,30,55.17a9.37,9.37,0,0,1-5.38-1.57,9.64,9.64,0,0,1-.94-.71A32.66,32.66,0,0,1,20,56.26l-.31.25c-.14,5,6.63,7.74,12.18,6.47ZM55.28,26.91a3.48,3.48,0,0,0-1.78.46A1.47,1.47,0,0,0,53,28a2,2,0,0,0-.16.94A8.42,8.42,0,0,0,54.51,33v0h0l3.54,5.63a30.31,30.31,0,0,0,4.76,6.25,9.73,9.73,0,0,0,6.78,2.73,10,10,0,0,0,7.18-2.85,31.05,31.05,0,0,0,4.89-6.67l4-6.57c.74-1.69,1-2.83.85-3.49-.11-.4-.54-.59-1.28-.63h-.49l-.56,0a1.46,1.46,0,0,1-.3,0,5.85,5.85,0,0,1-1.1-.06l1.37-6C74,22.94,66.43,15.42,55.73,19.84L56.5,27a6.07,6.07,0,0,1-1.22-.05Zm-35.41,20C17.59,39,18.7,31.74,24.94,25.51c1.11,3.58,3.59,6.54,7.82,8.72a41.1,41.1,0,0,1,5.86,5.39c.34-1.38-.94-3.06-2.49-4.79a7.59,7.59,0,0,1,3.69,3.61,10.06,10.06,0,0,1,.71,6.49,15.22,15.22,0,0,1-.44,2,.77.77,0,0,0-.31.22l-.5.59-.26.32-1.27,1.52a16.08,16.08,0,0,1-3.17,3.16A7.75,7.75,0,0,1,30,54.07a7.61,7.61,0,0,1-4.36-1.28,16,16,0,0,1-3.08-3l-2.31-2.68a.66.66,0,0,0-.34-.21Z"/></svg>