<svg id="Layer_1" data-name="Layer 1" xmlns="http://www.w3.org/2000/svg" viewBox="0 0 112.35 122.88"><defs><style>.cls-1{fill-rule:evenodd;}</style></defs><title>remote-work</title><path class="cls-1" d="M9.7,112.29V72.09a7.81,7.81,0,0,1-5.35.26A6.33,6.33,0,0,1,1.4,70.28,6.55,6.55,0,0,1,0,67a8.47,8.47,0,0,1,2-6.21h0a1.48,1.48,0,0,1,.28-.28L34.92,37.17a12.4,12.4,0,0,0,.77,1.17l.29.37.32.38a12.13,12.13,0,0,0,3.52,2.74v0l0,0a12,12,0,0,0,1.7.71,15.06,15.06,0,0,0,1.15,5,16.11,16.11,0,0,0,.84,1.72c-12.41,8.62-29.13,20.25-29.13,21v42ZM30.13,15.63a2.56,2.56,0,0,1-3.61-.28h0a2.57,2.57,0,0,1,.29-3.61h0a50.45,50.45,0,0,1,14.39-8.8,40.74,40.74,0,0,1,31,.26,51.5,51.5,0,0,1,14.3,9l.14.13a2.57,2.57,0,0,1,.23,3.47,1.07,1.07,0,0,1-.14.16,2.57,2.57,0,0,1-1.69.79,2.52,2.52,0,0,1-1.86-.63A46.59,46.59,0,0,0,70.3,8,35.58,35.58,0,0,0,43,7.74a45.53,45.53,0,0,0-12.86,7.89ZM56.66,36.18a5.62,5.62,0,1,1-4,1.64h0a5.63,5.63,0,0,1,4-1.64ZM47,33.12a2.58,2.58,0,0,1-3.55-.29,1.83,1.83,0,0,1-.13-.16,2.58,2.58,0,0,1,.36-3.46.79.79,0,0,1,.15-.12A23.28,23.28,0,0,1,50,25.4a18.31,18.31,0,0,1,6.68-1.29,18,18,0,0,1,6.64,1.25,23.14,23.14,0,0,1,6.25,3.71A2.57,2.57,0,0,1,70,32.68h0a2.56,2.56,0,0,1-1.73.93,2.53,2.53,0,0,1-1.88-.56h0a18.33,18.33,0,0,0-4.79-2.87,13,13,0,0,0-4.86-.94,13.17,13.17,0,0,0-4.9,1A18.66,18.66,0,0,0,47,33.12Zm-8.14-8.27-.13.11a2.56,2.56,0,0,1-3.49-.24,1.42,1.42,0,0,1-.12-.13,2.6,2.6,0,0,1-.57-1.77,2.56,2.56,0,0,1,.86-1.77,38.69,38.69,0,0,1,10.52-6.81,26.25,26.25,0,0,1,21.8.36A38.84,38.84,0,0,1,78,21.76l.06.06a2.52,2.52,0,0,1,.74,1.73,2.55,2.55,0,0,1-.69,1.83l-.06.07a2.58,2.58,0,0,1-3.57.05,33.82,33.82,0,0,0-8.82-6.18,21,21,0,0,0-17.9-.3,33.51,33.51,0,0,0-8.94,5.83Zm17.32,90.81a3,3,0,1,1-3,3,3,3,0,0,1,3-3ZM48.33,98.31h0c4,4.45,12.92,3.66,16.23,0a30.35,30.35,0,0,1-2.29-3.1c-.16-.23-.31-.46-.46-.66a9.57,9.57,0,0,1-5.5,1.62,9.25,9.25,0,0,1-6-2.17,18.82,18.82,0,0,1-1.75,4.09,1,1,0,0,1-.2.2ZM32.4,106.19a2.14,2.14,0,0,0-2,2.54l1.83,14.15h-4.8c-.15-7.79-2.57-17.09,5.49-21.59C36,99.57,44,99,47.42,96.71a29.35,29.35,0,0,0,1.47-3.85c0-.12,0,.08,0-.1-2.06-2.21-4.22-5.15-6.19-7.72a8.4,8.4,0,0,1-1.62-4.15,3.42,3.42,0,0,1,.28-1.49,2.72,2.72,0,0,1,1-1.14,3.2,3.2,0,0,1,.69-.36,73.88,73.88,0,0,1-.14-8.18,12.32,12.32,0,0,1,.36-1.85c1.05-3.74,4.26-6.44,7.94-7.71,1.78-.61,1.09-2.08,2.89-2,4.27.23,10.86,3,13.39,5.9,3.55,4.09,2.63,9.13,2.52,14.12h0a2,2,0,0,1,1.5,1.55,6.4,6.4,0,0,1-.78,3.91h0a.93.93,0,0,0-.05.1c-2.12,3-5.08,7.42-7.5,9.68l-.08.08c.16.24.34.49.52.77.57.83,1.21,1.77,1.81,2.51C69,99,76.8,99.6,79.85,101.29c7.39,4.13,5.16,14.12,5.43,21.59H80.54l1.83-14.15a2.16,2.16,0,0,0-2-2.54Zm12.33-27a2.82,2.82,0,0,0-1.44.38,1.12,1.12,0,0,0-.42.47,1.86,1.86,0,0,0-.13.77,6.78,6.78,0,0,0,1.36,3.32l0,0h0c2,2.56,4.57,6.23,6.7,8.18a7.9,7.9,0,0,0,5.49,2.21,8.09,8.09,0,0,0,5.8-2.3c2.24-2.1,5.18-6.5,7.18-9.29A5.14,5.14,0,0,0,70,80.15c-.08-.32-.43-.47-1-.5h-.39l-.45,0a1,1,0,0,1-.25,0,5.32,5.32,0,0,1-.88,0l1.1-4.89c-8.19,1.29-14.31-4.79-23-1.21l.63,5.75a4.58,4.58,0,0,1-1,0ZM78,37.71l31.7,22.58h0a1.29,1.29,0,0,1,.21.19,7.94,7.94,0,0,1,2.25,7.32,6.88,6.88,0,0,1-1.53,2.93,6.68,6.68,0,0,1-2.73,1.84,7.36,7.36,0,0,1-5.72-.37v40.09H97.46V70.13c0-.55-15.88-11.82-28-20.4a15.72,15.72,0,0,0,1.11-2.16,15.35,15.35,0,0,0,1.15-5.08,13.16,13.16,0,0,0,1.94-.83,12.11,12.11,0,0,0,3.44-2.79l.18-.22c.25-.31.48-.62.69-.94Zm10.89-10,13.4.54V45.58L87.82,36V29.11c.11-.38.19-.77.26-1.15l.81-.26Z"/></svg>