<svg width="0" height="0" class="hidden">
  <symbol id="remote-work" xmlns="http://www.w3.org/2000/svg" viewBox="0 0 112.35 122.88">
    <defs></defs>
    <title>remote-work</title>
    <path d="M9.7,112.29V72.09a7.81,7.81,0,0,1-5.35.26A6.33,6.33,0,0,1,1.4,70.28,6.55,6.55,0,0,1,0,67a8.47,8.47,0,0,1,2-6.21h0a1.48,1.48,0,0,1,.28-.28L34.92,37.17a12.4,12.4,0,0,0,.77,1.17l.29.37.32.38a12.13,12.13,0,0,0,3.52,2.74v0l0,0a12,12,0,0,0,1.7.71,15.06,15.06,0,0,0,1.15,5,16.11,16.11,0,0,0,.84,1.72c-12.41,8.62-29.13,20.25-29.13,21v42ZM30.13,15.63a2.56,2.56,0,0,1-3.61-.28h0a2.57,2.57,0,0,1,.29-3.61h0a50.45,50.45,0,0,1,14.39-8.8,40.74,40.74,0,0,1,31,.26,51.5,51.5,0,0,1,14.3,9l.14.13a2.57,2.57,0,0,1,.23,3.47,1.07,1.07,0,0,1-.14.16,2.57,2.57,0,0,1-1.69.79,2.52,2.52,0,0,1-1.86-.63A46.59,46.59,0,0,0,70.3,8,35.58,35.58,0,0,0,43,7.74a45.53,45.53,0,0,0-12.86,7.89ZM56.66,36.18a5.62,5.62,0,1,1-4,1.64h0a5.63,5.63,0,0,1,4-1.64ZM47,33.12a2.58,2.58,0,0,1-3.55-.29,1.83,1.83,0,0,1-.13-.16,2.58,2.58,0,0,1,.36-3.46.79.79,0,0,1,.15-.12A23.28,23.28,0,0,1,50,25.4a18.31,18.31,0,0,1,6.68-1.29,18,18,0,0,1,6.64,1.25,23.14,23.14,0,0,1,6.25,3.71A2.57,2.57,0,0,1,70,32.68h0a2.56,2.56,0,0,1-1.73.93,2.53,2.53,0,0,1-1.88-.56h0a18.33,18.33,0,0,0-4.79-2.87,13,13,0,0,0-4.86-.94,13.17,13.17,0,0,0-4.9,1A18.66,18.66,0,0,0,47,33.12Zm-8.14-8.27-.13.11a2.56,2.56,0,0,1-3.49-.24,1.42,1.42,0,0,1-.12-.13,2.6,2.6,0,0,1-.57-1.77,2.56,2.56,0,0,1,.86-1.77,38.69,38.69,0,0,1,10.52-6.81,26.25,26.25,0,0,1,21.8.36A38.84,38.84,0,0,1,78,21.76l.06.06a2.52,2.52,0,0,1,.74,1.73,2.55,2.55,0,0,1-.69,1.83l-.06.07a2.58,2.58,0,0,1-3.57.05,33.82,33.82,0,0,0-8.82-6.18,21,21,0,0,0-17.9-.3,33.51,33.51,0,0,0-8.94,5.83Zm17.32,90.81a3,3,0,1,1-3,3,3,3,0,0,1,3-3ZM48.33,98.31h0c4,4.45,12.92,3.66,16.23,0a30.35,30.35,0,0,1-2.29-3.1c-.16-.23-.31-.46-.46-.66a9.57,9.57,0,0,1-5.5,1.62,9.25,9.25,0,0,1-6-2.17,18.82,18.82,0,0,1-1.75,4.09,1,1,0,0,1-.2.2ZM32.4,106.19a2.14,2.14,0,0,0-2,2.54l1.83,14.15h-4.8c-.15-7.79-2.57-17.09,5.49-21.59C36,99.57,44,99,47.42,96.71a29.35,29.35,0,0,0,1.47-3.85c0-.12,0,.08,0-.1-2.06-2.21-4.22-5.15-6.19-7.72a8.4,8.4,0,0,1-1.62-4.15,3.42,3.42,0,0,1,.28-1.49,2.72,2.72,0,0,1,1-1.14,3.2,3.2,0,0,1,.69-.36,73.88,73.88,0,0,1-.14-8.18,12.32,12.32,0,0,1,.36-1.85c1.05-3.74,4.26-6.44,7.94-7.71,1.78-.61,1.09-2.08,2.89-2,4.27.23,10.86,3,13.39,5.9,3.55,4.09,2.63,9.13,2.52,14.12h0a2,2,0,0,1,1.5,1.55,6.4,6.4,0,0,1-.78,3.91h0a.93.93,0,0,0-.05.1c-2.12,3-5.08,7.42-7.5,9.68l-.08.08c.16.24.34.49.52.77.57.83,1.21,1.77,1.81,2.51C69,99,76.8,99.6,79.85,101.29c7.39,4.13,5.16,14.12,5.43,21.59H80.54l1.83-14.15a2.16,2.16,0,0,0-2-2.54Zm12.33-27a2.82,2.82,0,0,0-1.44.38,1.12,1.12,0,0,0-.42.47,1.86,1.86,0,0,0-.13.77,6.78,6.78,0,0,0,1.36,3.32l0,0h0c2,2.56,4.57,6.23,6.7,8.18a7.9,7.9,0,0,0,5.49,2.21,8.09,8.09,0,0,0,5.8-2.3c2.24-2.1,5.18-6.5,7.18-9.29A5.14,5.14,0,0,0,70,80.15c-.08-.32-.43-.47-1-.5h-.39l-.45,0a1,1,0,0,1-.25,0,5.32,5.32,0,0,1-.88,0l1.1-4.89c-8.19,1.29-14.31-4.79-23-1.21l.63,5.75a4.58,4.58,0,0,1-1,0ZM78,37.71l31.7,22.58h0a1.29,1.29,0,0,1,.21.19,7.94,7.94,0,0,1,2.25,7.32,6.88,6.88,0,0,1-1.53,2.93,6.68,6.68,0,0,1-2.73,1.84,7.36,7.36,0,0,1-5.72-.37v40.09H97.46V70.13c0-.55-15.88-11.82-28-20.4a15.72,15.72,0,0,0,1.11-2.16,15.35,15.35,0,0,0,1.15-5.08,13.16,13.16,0,0,0,1.94-.83,12.11,12.11,0,0,0,3.44-2.79l.18-.22c.25-.31.48-.62.69-.94Zm10.89-10,13.4.54V45.58L87.82,36V29.11c.11-.38.19-.77.26-1.15l.81-.26Z"></path>
  </symbol>
  <symbol id="increasing-users" xmlns="http://www.w3.org/2000/svg" viewBox="0 0 122.88 121.84">
    <defs></defs>
    <title>increasing-users</title>
    <path d="M58.75,51.2c4.35,9.07,17.55,9.4,21.71,0a24.53,24.53,0,0,1-2.82-3.61l-.41-.6a11.77,11.77,0,0,1-7.63,2.6,11.56,11.56,0,0,1-8.13-3.25L61.09,46c-.3.85-.68,1.86-1.1,2.8a16.59,16.59,0,0,1-1.24,2.37ZM15.22,110.33,51.83,76.14c9,9,17.83,17.83,26.89,26.78l24-24.28L91.57,67.52l31.31-.29V98.81L112.19,88.12Q95.48,105,78.78,121.84L51.64,95l-15.4,15.29Zm-.13-62.14,2.8-.07,1.33,0,2,2.34c.48.55,1,1.1,1.49,1.63a30.74,30.74,0,0,1-3.54,3.24c-.66.56-1.29,1.09-1.77,1.53A62.65,62.65,0,0,0,7.07,61.59a10.29,10.29,0,0,0-4.21,4.08C.51,70.07,1.05,75.4.09,79.91c-.29,4,0,3.77,2.79,3.72,7.84-.13,16.64-.14,24.82-.11L44.28,68l.18-.17.07-.06.36-.3,0,0,0,0,.15-.12.05,0,.2-.15h0l.22-.15,0,0,.19-.12,0,0,0,0,.17-.1h0l.08,0,.12-.07.09-.06.2-.11h0l.19-.11.06,0,.15-.07.09-.05.21-.09,0,0,.18-.07.08,0h0l.17-.07h0l.16-.06h0l.13,0h0l.16-.06h0l.19-.06h0l.13,0,.11,0,.1,0h0l.19,0,.12,0,.09,0,.15,0h0l.15,0,.19,0,.17,0h0l.14,0h0l.18,0c.31,0,.62-.07.94-.08h.57c.32,0,.63,0,.95,0l.19,0,.17,0h0a10.39,10.39,0,0,1,2.57.63,11,11,0,0,1,4.18,2.81l.59.58,7.63,7.63h17l-1.44-1.44a11.1,11.1,0,0,1,8.71-18.91l8.81-.08c-4.77-2.14-15.15-3-19.55-6.13h0l-.09-.09A23.44,23.44,0,0,1,79,46.76c-.17-.26-.35-.53-.53-.78a34.13,34.13,0,0,0,4.95-6.82l4-6.64a.54.54,0,0,0,0-.11h0c1-2.15,1.26-3.72,1-4.84a2.55,2.55,0,0,0-1.87-1.93h0l.22-9.18a13.7,13.7,0,0,0-3.46-8.67C79.41,3.55,71.12-.52,65.51.05c-1.16.12.12,2.65-1,3a18.94,18.94,0,0,0-5,2.23,13.57,13.57,0,0,0-6,7.62,14.43,14.43,0,0,0-.44,2.29,91.65,91.65,0,0,0,.17,10.12,4.61,4.61,0,0,0-.86.43,3.51,3.51,0,0,0-1.21,1.42A4.06,4.06,0,0,0,50.83,29a10.3,10.3,0,0,0,2,5.14l3.54,5.63a42.88,42.88,0,0,0,3.5,5c-.32.91-.81,2.25-1.34,3.47a14.65,14.65,0,0,1-1.07,2.08C53.55,53,45,54,39.79,55.68a33.49,33.49,0,0,1-3.14-3,22.52,22.52,0,0,0,2.4-2.59l1.27-1.52.26-.3.22-.27h2.77c4.07-8.72,1.49-21.67-6.85-27.16-2.56-1.69-4.4-1.62-7.39-1.62-3.44,0-5.19.11-8.14,2.06-4.33,2.87-7,7.83-8.12,14.72-.23,3.43-.38,9.37,2,12.14ZM31.87,63a14.64,14.64,0,0,1,1.57-3,11.84,11.84,0,0,1,3.79-3.21,10.37,10.37,0,0,1,1.2-.57,27.13,27.13,0,0,1-2.77-2.66l0,0A9.55,9.55,0,0,1,30,55.17a9.37,9.37,0,0,1-5.38-1.57,9.64,9.64,0,0,1-.94-.71A32.66,32.66,0,0,1,20,56.26l-.31.25c-.14,5,6.63,7.74,12.18,6.47ZM55.28,26.91a3.48,3.48,0,0,0-1.78.46A1.47,1.47,0,0,0,53,28a2,2,0,0,0-.16.94A8.42,8.42,0,0,0,54.51,33v0h0l3.54,5.63a30.31,30.31,0,0,0,4.76,6.25,9.73,9.73,0,0,0,6.78,2.73,10,10,0,0,0,7.18-2.85,31.05,31.05,0,0,0,4.89-6.67l4-6.57c.74-1.69,1-2.83.85-3.49-.11-.4-.54-.59-1.28-.63h-.49l-.56,0a1.46,1.46,0,0,1-.3,0,5.85,5.85,0,0,1-1.1-.06l1.37-6C74,22.94,66.43,15.42,55.73,19.84L56.5,27a6.07,6.07,0,0,1-1.22-.05Zm-35.41,20C17.59,39,18.7,31.74,24.94,25.51c1.11,3.58,3.59,6.54,7.82,8.72a41.1,41.1,0,0,1,5.86,5.39c.34-1.38-.94-3.06-2.49-4.79a7.59,7.59,0,0,1,3.69,3.61,10.06,10.06,0,0,1,.71,6.49,15.22,15.22,0,0,1-.44,2,.77.77,0,0,0-.31.22l-.5.59-.26.32-1.27,1.52a16.08,16.08,0,0,1-3.17,3.16A7.75,7.75,0,0,1,30,54.07a7.61,7.61,0,0,1-4.36-1.28,16,16,0,0,1-3.08-3l-2.31-2.68a.66.66,0,0,0-.34-.21Z"></path>
  </symbol>
  <symbol version="1.1" id="training-board" xmlns="http://www.w3.org/2000/svg" xmlns:xlink="http://www.w3.org/1999/xlink" x="0px" y="0px" xml:space="preserve" viewBox="0 0 122.88 107.78">
    <g>
      <path d="M58.84,91.1c0.21-0.2,0.46-0.35,0.71-0.45v-9.39H2.1c-1.16,0-2.1-0.94-2.1-2.1c0-1.16,0.94-2.1,2.1-2.1h9.09 V12.44H2.1c-1.16,0-2.1-0.94-2.1-2.1c0-1.16,0.94-2.1,2.1-2.1h57.12V2.1c0-1.16,0.94-2.1,2.1-2.1s2.1,0.94,2.1,2.1v6.14h57.12 c1.16,0,2.1,0.94,2.1,2.1c0,1.16-0.94,2.1-2.1,2.1h-8.95v64.62h9.18c1.16,0,2.1,0.94,2.1,2.1c0,1.16-0.94,2.1-2.1,2.1H63.75v9.6 c0.1,0.07,0.2,0.14,0.29,0.23l13.12,12.48c0.84,0.8,0.87,2.12,0.07,2.96c-0.8,0.84-2.12,0.87-2.96,0.07L63.75,96.6v9.08 c0,1.16-0.94,2.1-2.1,2.1c-1.16,0-2.1-0.94-2.1-2.1V96.2L48.6,106.61c-0.84,0.8-2.17,0.76-2.96-0.07c-0.8-0.84-0.77-2.17,0.07-2.96 L58.84,91.1L58.84,91.1z M107.39,77.06V12.44h-92v64.62H107.39L107.39,77.06z"></path>
    </g>
  </symbol>
  <symbol version="1.1" id="user-network" xmlns="http://www.w3.org/2000/svg" xmlns:xlink="http://www.w3.org/1999/xlink" x="0px" y="0px" xml:space="preserve" viewBox="0 0 122.88 93.83">
    <g>
      <path d="M98.24,1.06c5.29,0,9.58,4.29,9.58,9.58c0,5.29-4.29,9.58-9.58,9.58c-1.89,0-3.66-0.55-5.15-1.5 c-0.06,0.08-0.13,0.16-0.21,0.23l-7.11,6.85c4.74,5.3,7.75,12.18,8.13,19.75h9.94c0.75-4.54,4.7-8,9.45-8 c5.29,0,9.58,4.29,9.58,9.58c0,5.29-4.29,9.58-9.58,9.58c-4.49,0-8.26-3.09-9.3-7.27c-0.05,0-0.1,0.01-0.15,0.01h-9.99 c-0.53,7.47-3.61,14.23-8.38,19.41l7.53,7c0.07,0.07,0.14,0.14,0.2,0.22c1.46-0.9,3.18-1.42,5.03-1.42c5.29,0,9.58,4.29,9.58,9.58 c0,5.29-4.29,9.58-9.58,9.58s-9.58-4.29-9.58-9.58c0-2.04,0.64-3.93,1.73-5.49l-0.03-0.03l-7.69-7.14 c-5.59,4.76-12.84,7.63-20.75,7.63c-8.18,0-15.64-3.06-21.3-8.1l-7.76,7.56l-0.01,0.01c1.06,1.54,1.67,3.4,1.67,5.41 c0,5.29-4.29,9.58-9.58,9.58s-9.58-4.29-9.58-9.58c0-5.29,4.29-9.58,9.58-9.58c1.87,0,3.62,0.54,5.1,1.47 c0.03-0.04,0.06-0.07,0.1-0.1l7.73-7.53c-4.55-5.17-7.46-11.81-7.92-19.13l-10.9,0.11l-0.06,0c-0.88,4.39-4.75,7.7-9.4,7.7 C4.29,57.03,0,52.74,0,47.45c0-5.29,4.29-9.58,9.58-9.58c4.6,0,8.45,3.24,9.37,7.57l0.05,0l10.92-0.11 c0.42-7.39,3.35-14.1,7.94-19.32l-8.13-7.77c-0.06-0.06-0.12-0.12-0.17-0.19c-1.33,0.71-2.86,1.1-4.47,1.1 c-5.29,0-9.58-4.29-9.58-9.58C15.51,4.29,19.8,0,25.09,0c5.29,0,9.58,4.29,9.58,9.58c0,2.26-0.78,4.34-2.1,5.98l8.04,7.68 c5.66-5.04,13.12-8.1,21.29-8.1c8.08,0,15.46,2.99,21.1,7.93l7.18-6.92c0.04-0.04,0.09-0.08,0.14-0.12 c-1.05-1.54-1.66-3.39-1.66-5.39C88.66,5.35,92.95,1.06,98.24,1.06L98.24,1.06z M57.41,50.48l2.67,7.85l1.34-4.66l-0.66-0.72 c-0.3-0.43-0.36-0.81-0.2-1.14c0.36-0.71,1.09-0.57,1.78-0.57c0.72,0,1.61-0.14,1.84,0.77c0.08,0.3-0.02,0.62-0.23,0.94l-0.66,0.72 l1.34,4.66l2.42-7.85c1.74,1.57,6.91,1.88,8.83,2.96c0.61,0.34,1.16,0.77,1.6,1.35c0.67,0.88,1.08,2.04,1.19,3.5l0.4,3.89 c-0.1,1.04-0.69,1.64-1.84,1.72H62.37H47.24c-1.16-0.09-1.75-0.69-1.84-1.72l0.4-3.89c0.11-1.47,0.52-2.62,1.19-3.5 c0.44-0.58,0.99-1.01,1.6-1.35C50.51,52.36,55.67,52.05,57.41,50.48L57.41,50.48z M56.69,38.61c0.03,0.06,0.04,0.12,0.04,0.19 c0,0.03,0,0.06-0.01,0.1l0.05,0.37c-0.13,0.03-0.25,0.03-0.37,0.03c-0.05,0.02-0.11,0.03-0.16,0.03c-0.33,0.01-0.57,0.07-0.73,0.18 c-0.08,0.06-0.15,0.13-0.18,0.21c-0.05,0.1-0.07,0.22-0.06,0.36c0.01,0.44,0.25,1.01,0.7,1.68l0.01,0.01l0,0l1.49,2.37 c0.6,0.95,1.22,1.91,1.99,2.62c0.73,0.67,1.63,1.13,2.8,1.13c1.28,0,2.21-0.47,2.97-1.18c0.8-0.74,1.43-1.77,2.05-2.8l1.68-2.76 c0.34-0.77,0.44-1.24,0.33-1.46c-0.07-0.15-0.37-0.18-0.87-0.14c-0.15,0.01-0.3-0.04-0.4-0.14c-0.04,0-0.08,0-0.12-0.01l0.02-0.12 c-0.03-0.06-0.05-0.12-0.06-0.19c-0.02-0.17,0.06-0.33,0.18-0.44l0.35-1.77c-3.07-0.04-5.17-0.57-7.66-2.16 c-0.82-0.52-1.06-1.12-1.88-1.06c-0.62,0.12-1.14,0.4-1.55,0.84c-0.4,0.43-0.69,1.01-0.89,1.75L56.69,38.61L56.69,38.61z M69.4,38.62c0.36,0.11,0.62,0.31,0.78,0.63c0.25,0.51,0.15,1.27-0.32,2.35l0,0c-0.01,0.02-0.02,0.04-0.03,0.06l-1.7,2.8 c-0.66,1.08-1.33,2.17-2.22,3.01c-0.93,0.88-2.09,1.46-3.66,1.45c-1.47,0-2.58-0.57-3.49-1.4c-0.87-0.8-1.54-1.82-2.17-2.82 l-1.49-2.37c-0.56-0.83-0.84-1.59-0.86-2.21c-0.01-0.3,0.04-0.58,0.15-0.82c0.12-0.25,0.3-0.47,0.54-0.63 c0.12-0.08,0.25-0.15,0.4-0.2c-0.09-1.27-0.12-2.85-0.06-4.17c0.03-0.32,0.09-0.64,0.18-0.97c0.38-1.36,1.34-2.46,2.52-3.21 c0.42-0.27,0.87-0.49,1.36-0.66c2.87-1.04,6.66-0.47,8.7,1.73c0.83,0.9,1.35,2.08,1.46,3.66L69.4,38.62L69.4,38.62z M81.78,27.27 c-0.06-0.05-0.11-0.1-0.16-0.15c-0.03-0.03-0.05-0.06-0.08-0.09c-5.07-4.94-11.99-7.98-19.62-7.98c-7.65,0-14.58,3.05-19.65,8 c-0.06,0.09-0.13,0.17-0.2,0.25c-0.1,0.1-0.2,0.19-0.32,0.27c-4.92,5.07-7.96,11.98-7.96,19.6c0,7.77,3.15,14.8,8.24,19.89 c5.09,5.09,12.12,8.24,19.89,8.24c7.77,0,14.8-3.15,19.89-8.24c5.09-5.09,8.24-12.12,8.24-19.89c0-7.77-3.15-14.8-8.24-19.89 L81.78,27.27L81.78,27.27z"></path>
    </g>
  </symbol>
  <symbol version="1.1" id="conference-education" xmlns="http://www.w3.org/2000/svg" xmlns:xlink="http://www.w3.org/1999/xlink" x="0px" y="0px" xml:space="preserve" viewBox="0 0 122.88 118.27">
    <g>
      <path d="M9.77,9.18c-1.08,0-1.95-0.87-1.95-1.95c0-1.08,0.87-1.95,1.95-1.95h51.91V1.95c0-1.08,0.87-1.95,1.95-1.95 c1.08,0,1.95,0.87,1.95,1.95v3.33h48.32c1.08,0,1.95,0.87,1.95,1.95c0,1.08-0.87,1.95-1.95,1.95h-4.49v49.8h4.7 c1.08,0,1.95,0.87,1.95,1.95c0,1.08-0.87,1.95-1.95,1.95H65.85v5.53c0.1,0.07,0.17,0.14,0.24,0.21l11.95,11.36 c0.77,0.73,0.8,1.99,0.07,2.75c-0.73,0.77-1.99,0.8-2.75,0.07l-9.48-9.02v9.89c0,1.08-0.87,1.95-1.95,1.95 c-1.08,0-1.95-0.87-1.95-1.95V73.39l-9.89,9.41c-0.77,0.73-2.02,0.73-2.75-0.07c-0.73-0.77-0.73-2.02,0.07-2.75l11.95-11.36 c0.17-0.17,0.42-0.31,0.63-0.42v-5.32H35.51c-1.08,0-1.95-0.87-1.95-1.95c0-1.08,0.87-1.95,1.95-1.95h69.99V9.18H9.77L9.77,9.18z M77.17,105.82c-8.69,0-2.97,0.68-1.78-8.76c1.77-14.12,15.19-14.12,17.17,0c1.27,9.08,6.72,8.76-1.78,8.76h-3.39 c-0.01,2.31-0.37,3.49,2.03,4.79c1.22,0.66,3.5,1.16,5.45,1.92c2.97-2.54,8.24-0.87,8.79-5.52c0.08-0.71-1.59-3.41-1.97-4.71 c-0.82-1.31-1.11-3.38-0.22-4.77c0.36-0.55,0.2-2.55,0.2-3.31c0-7.52,13.18-7.52,13.18,0c0,0.95-0.22,2.7,0.3,3.45 c0.86,1.25,0.42,3.47-0.31,4.63c-0.47,1.36-2.24,3.94-2.09,4.71c1.28,6.51,10.15-0.46,10.15,11.25l-24.91,0l-0.01,0h-4.03h-1.08 l-22.94,0l-0.01,0l-22.03,0v0l-27.8,0c0-11.91,11.24-5.31,12.1-12.61c0.09-0.8-1.78-3.82-2.21-5.28c-0.92-1.47-1.25-3.79-0.24-5.34 c0.4-0.62,0.23-2.86,0.23-3.71c0-8.43,14.77-8.43,14.77,0c0,1.07-0.25,3.03,0.33,3.86c0.97,1.4,0.47,3.89-0.35,5.19 c-0.52,1.53-2.51,4.41-2.34,5.28c0.62,3.15,8.47,5.29,11.21,6.45c1.54-0.79,2.79-1.73,2.92-2.82c0.07-0.57-1.27-2.72-1.57-3.76 c-0.65-1.04-0.89-2.7-0.17-3.81c0.28-0.44,0.16-2.04,0.16-2.64c0-6,10.52-6.01,10.52,0c0,0.76-0.17,2.15,0.24,2.75 c0.69,1,0.33,2.77-0.25,3.69c-0.37,1.09-1.79,3.14-1.67,3.76c0.77,3.94,5.03,1.7,7.04,4.45c1.9-1.5,5.68-1.91,7.99-3.29 c2.11-1.26,1.75-2.53,1.74-4.63L77.17,105.82L77.17,105.82L77.17,105.82z M0.01,46.73c-0.28-5.43,4.18-6.86,10.24-6.48l7.66,8.53 l7.49-8.43l18.57-0.1c7,0.8,5.54,8.15,0,8.43H31.82l-2.86,17.17L26.8,77.02c-0.56,1.85-1.67,3.03-3.31,3.66l-10.56,0.07 c-2.13-0.31-3.38-1.57-3.76-3.76l-1.64-9.25c-4.32,0.42-5.78-2.65-6.24-7.07L0.05,46.7L0.01,46.73L0.01,46.73z M17.47,17.02 c5.19,0,9.41,4.22,9.41,9.41s-4.22,9.41-9.41,9.41c-5.19,0-9.41-4.22-9.41-9.41S12.27,17.02,17.47,17.02L17.47,17.02z M17.81,44.78 l-5.96-6.55l1.74-1.39c2.58,1.08,5.16,1.08,7.7,0l2.4,1.43L17.81,44.78L17.81,44.78z"></path>
    </g>
  </symbol>
  <symbol version="1.1" xmlns="http://www.w3.org/2000/svg" xmlns:xlink="http://www.w3.org/1999/xlink" x="0px" y="0px" enable-background="new 0 0 1000 1000" xml:space="preserve" viewBox="0 0 1000 1000" id="forum">
    <metadata>Svg Vector Icons : http://www.onlinewebfonts.com/icon</metadata>
    <g>
      <path d="M898.4,96.9c21.9,0,39.7,17.8,39.7,39.7V616c0,21.9-17.8,39.7-39.7,39.7H460.3L182.5,854.1V655.7h-80.9c-21.9,0-39.7-17.8-39.7-39.7V136.6c0-21.9,17.8-39.7,39.7-39.7L898.4,96.9 M743.3,450.5c43.8,0,79.4-35.5,79.4-79.4c0-43.8-35.5-79.4-79.4-79.4c-43.8,0-79.4,35.5-79.4,79.4C663.9,415,699.5,450.5,743.3,450.5 M498.7,450.5c43.8,0,79.4-35.5,79.4-79.4c0-43.8-35.5-79.4-79.4-79.4c-43.8,0-79.4,35.5-79.4,79.4C419.3,415,454.9,450.5,498.7,450.5 M256.7,450.5c43.8,0,79.4-35.5,79.4-79.4c0-43.8-35.5-79.4-79.4-79.4c-43.8,0-79.4,35.5-79.4,79.4C177.3,415,212.9,450.5,256.7,450.5 M898.4,45.1H101.6C51.1,45.1,10,86.1,10,136.6V616c0,50.5,41.1,91.6,91.6,91.6h29.1v146.6v100.8l82-58.6l264.3-188.8h421.5c50.5,0,91.6-41.1,91.6-91.6V136.6C990,86.1,948.9,45.1,898.4,45.1L898.4,45.1z M743.3,398.6c-15.2,0-27.5-12.3-27.5-27.5c0-15.2,12.3-27.5,27.5-27.5c15.2,0,27.5,12.3,27.5,27.5C770.8,386.3,758.5,398.6,743.3,398.6L743.3,398.6z M498.7,398.6c-15.2,0-27.5-12.3-27.5-27.5c0-15.2,12.3-27.5,27.5-27.5c15.2,0,27.5,12.3,27.5,27.5C526.2,386.3,513.9,398.6,498.7,398.6L498.7,398.6z M256.7,398.6c-15.2,0-27.5-12.3-27.5-27.5c0-15.2,12.3-27.5,27.5-27.5c15.2,0,27.5,12.3,27.5,27.5C284.2,386.3,271.9,398.6,256.7,398.6L256.7,398.6z"></path>
    </g>
  </symbol>
</svg>