<?xml version="1.0" encoding="utf-8"?><svg version="1.1" id="Layer_1" xmlns="http://www.w3.org/2000/svg" xmlns:xlink="http://www.w3.org/1999/xlink" x="0px" y="0px" viewBox="0 0 122.88 93.83" style="enable-background:new 0 0 122.88 93.83" xml:space="preserve"><style type="text/css">.st0{fill-rule:evenodd;clip-rule:evenodd;}</style><g><path class="st0" d="M98.24,1.06c5.29,0,9.58,4.29,9.58,9.58c0,5.29-4.29,9.58-9.58,9.58c-1.89,0-3.66-0.55-5.15-1.5 c-0.06,0.08-0.13,0.16-0.21,0.23l-7.11,6.85c4.74,5.3,7.75,12.18,8.13,19.75h9.94c0.75-4.54,4.7-8,9.45-8 c5.29,0,9.58,4.29,9.58,9.58c0,5.29-4.29,9.58-9.58,9.58c-4.49,0-8.26-3.09-9.3-7.27c-0.05,0-0.1,0.01-0.15,0.01h-9.99 c-0.53,7.47-3.61,14.23-8.38,19.41l7.53,7c0.07,0.07,0.14,0.14,0.2,0.22c1.46-0.9,3.18-1.42,5.03-1.42c5.29,0,9.58,4.29,9.58,9.58 c0,5.29-4.29,9.58-9.58,9.58s-9.58-4.29-9.58-9.58c0-2.04,0.64-3.93,1.73-5.49l-0.03-0.03l-7.69-7.14 c-5.59,4.76-12.84,7.63-20.75,7.63c-8.18,0-15.64-3.06-21.3-8.1l-7.76,7.56l-0.01,0.01c1.06,1.54,1.67,3.4,1.67,5.41 c0,5.29-4.29,9.58-9.58,9.58s-9.58-4.29-9.58-9.58c0-5.29,4.29-9.58,9.58-9.58c1.87,0,3.62,0.54,5.1,1.47 c0.03-0.04,0.06-0.07,0.1-0.1l7.73-7.53c-4.55-5.17-7.46-11.81-7.92-19.13l-10.9,0.11l-0.06,0c-0.88,4.39-4.75,7.7-9.4,7.7 C4.29,57.03,0,52.74,0,47.45c0-5.29,4.29-9.58,9.58-9.58c4.6,0,8.45,3.24,9.37,7.57l0.05,0l10.92-0.11 c0.42-7.39,3.35-14.1,7.94-19.32l-8.13-7.77c-0.06-0.06-0.12-0.12-0.17-0.19c-1.33,0.71-2.86,1.1-4.47,1.1 c-5.29,0-9.58-4.29-9.58-9.58C15.51,4.29,19.8,0,25.09,0c5.29,0,9.58,4.29,9.58,9.58c0,2.26-0.78,4.34-2.1,5.98l8.04,7.68 c5.66-5.04,13.12-8.1,21.29-8.1c8.08,0,15.46,2.99,21.1,7.93l7.18-6.92c0.04-0.04,0.09-0.08,0.14-0.12 c-1.05-1.54-1.66-3.39-1.66-5.39C88.66,5.35,92.95,1.06,98.24,1.06L98.24,1.06z M57.41,50.48l2.67,7.85l1.34-4.66l-0.66-0.72 c-0.3-0.43-0.36-0.81-0.2-1.14c0.36-0.71,1.09-0.57,1.78-0.57c0.72,0,1.61-0.14,1.84,0.77c0.08,0.3-0.02,0.62-0.23,0.94l-0.66,0.72 l1.34,4.66l2.42-7.85c1.74,1.57,6.91,1.88,8.83,2.96c0.61,0.34,1.16,0.77,1.6,1.35c0.67,0.88,1.08,2.04,1.19,3.5l0.4,3.89 c-0.1,1.04-0.69,1.64-1.84,1.72H62.37H47.24c-1.16-0.09-1.75-0.69-1.84-1.72l0.4-3.89c0.11-1.47,0.52-2.62,1.19-3.5 c0.44-0.58,0.99-1.01,1.6-1.35C50.51,52.36,55.67,52.05,57.41,50.48L57.41,50.48z M56.69,38.61c0.03,0.06,0.04,0.12,0.04,0.19 c0,0.03,0,0.06-0.01,0.1l0.05,0.37c-0.13,0.03-0.25,0.03-0.37,0.03c-0.05,0.02-0.11,0.03-0.16,0.03c-0.33,0.01-0.57,0.07-0.73,0.18 c-0.08,0.06-0.15,0.13-0.18,0.21c-0.05,0.1-0.07,0.22-0.06,0.36c0.01,0.44,0.25,1.01,0.7,1.68l0.01,0.01l0,0l1.49,2.37 c0.6,0.95,1.22,1.91,1.99,2.62c0.73,0.67,1.63,1.13,2.8,1.13c1.28,0,2.21-0.47,2.97-1.18c0.8-0.74,1.43-1.77,2.05-2.8l1.68-2.76 c0.34-0.77,0.44-1.24,0.33-1.46c-0.07-0.15-0.37-0.18-0.87-0.14c-0.15,0.01-0.3-0.04-0.4-0.14c-0.04,0-0.08,0-0.12-0.01l0.02-0.12 c-0.03-0.06-0.05-0.12-0.06-0.19c-0.02-0.17,0.06-0.33,0.18-0.44l0.35-1.77c-3.07-0.04-5.17-0.57-7.66-2.16 c-0.82-0.52-1.06-1.12-1.88-1.06c-0.62,0.12-1.14,0.4-1.55,0.84c-0.4,0.43-0.69,1.01-0.89,1.75L56.69,38.61L56.69,38.61z M69.4,38.62c0.36,0.11,0.62,0.31,0.78,0.63c0.25,0.51,0.15,1.27-0.32,2.35l0,0c-0.01,0.02-0.02,0.04-0.03,0.06l-1.7,2.8 c-0.66,1.08-1.33,2.17-2.22,3.01c-0.93,0.88-2.09,1.46-3.66,1.45c-1.47,0-2.58-0.57-3.49-1.4c-0.87-0.8-1.54-1.82-2.17-2.82 l-1.49-2.37c-0.56-0.83-0.84-1.59-0.86-2.21c-0.01-0.3,0.04-0.58,0.15-0.82c0.12-0.25,0.3-0.47,0.54-0.63 c0.12-0.08,0.25-0.15,0.4-0.2c-0.09-1.27-0.12-2.85-0.06-4.17c0.03-0.32,0.09-0.64,0.18-0.97c0.38-1.36,1.34-2.46,2.52-3.21 c0.42-0.27,0.87-0.49,1.36-0.66c2.87-1.04,6.66-0.47,8.7,1.73c0.83,0.9,1.35,2.08,1.46,3.66L69.4,38.62L69.4,38.62z M81.78,27.27 c-0.06-0.05-0.11-0.1-0.16-0.15c-0.03-0.03-0.05-0.06-0.08-0.09c-5.07-4.94-11.99-7.98-19.62-7.98c-7.65,0-14.58,3.05-19.65,8 c-0.06,0.09-0.13,0.17-0.2,0.25c-0.1,0.1-0.2,0.19-0.32,0.27c-4.92,5.07-7.96,11.98-7.96,19.6c0,7.77,3.15,14.8,8.24,19.89 c5.09,5.09,12.12,8.24,19.89,8.24c7.77,0,14.8-3.15,19.89-8.24c5.09-5.09,8.24-12.12,8.24-19.89c0-7.77-3.15-14.8-8.24-19.89 L81.78,27.27L81.78,27.27z"/></g></svg>